<svg width="512" height="512" viewBox="0 0 512 512" fill="none" xmlns="http://www.w3.org/2000/svg">
<path fill-rule="evenodd" clip-rule="evenodd" d="M176.204 12.6812C73.8925 46.2134 0 142.477 0 256C0 265.07 0.471702 274.03 1.39191 282.857C21.2215 260.664 47.6093 244.027 77.9999 235.679C94.1799 231.233 99.5419 230.629 122.5 230.661C147.586 230.695 154.483 231.783 178.854 239.553C200.421 246.429 207.024 247.537 226.5 247.551C250.034 247.567 265.166 244.155 284.446 234.481C346.552 203.322 369.258 129.526 333.561 74.8533C311.344 40.8261 270.819 25.8521 233.873 38.0188C202.756 48.2647 182.558 79.4387 188.273 108.398C191.441 124.45 199.873 136.146 212.887 142.542C218.736 145.417 220.395 145.772 227.979 145.772C235.574 145.772 237.09 145.446 241.927 142.777C248.987 138.881 253 132.86 253 126.165C253 119.718 250.157 116.458 243.477 115.243C233.295 113.392 229.959 103.634 236.298 94.2439C239.264 89.8493 244.114 86.6856 250.937 84.6949C265.612 80.414 284.938 90.3944 293.054 106.445C304.223 128.535 299.307 155.632 280.745 174.282C265.247 189.854 245.151 197.213 221.72 195.897C209.46 195.209 202.45 193.436 191.236 188.19C157.255 172.293 136 137.723 136 98.3511C136 64.795 151.415 34.127 176.204 12.6812ZM101.816 460.379C65.6458 433.049 36.9585 396.339 19.3729 353.867C20.8887 349.007 22.8223 344.204 25.1819 339.508C31.1169 327.697 34.2859 323.474 45.4489 312.494C57.0219 301.111 67.0379 294.614 81.2579 289.267C97.1089 283.308 106.993 281.767 125.5 282.371C145.911 283.036 157.98 285.996 175.039 294.521C195.312 304.651 212.183 319.629 224.521 338.45C235.16 354.679 240.132 367.214 245.508 391.361C253.044 425.209 265.309 450.165 285.263 472.251C296.599 484.799 308.931 495.126 322.392 503.307C301.219 508.977 278.962 512 256 512C220.143 512 186.009 504.628 155.029 491.318C169.553 480.417 181.15 466.156 187.571 450.435C193.61 435.647 194.504 430.894 194.457 413.824C194.41 396.591 193.248 390.62 187.535 378.262C176.671 354.761 157.081 338.929 133.225 334.373C123.726 332.559 118.723 332.591 109.208 334.53C91.4489 338.148 77.3969 348.611 70.2629 363.527C66.6409 371.1 66.5009 371.79 66.5299 381.878C66.5629 393.379 67.9609 397.708 74.0049 405.029C82.9679 415.884 100.256 416.665 105.362 406.445C107.111 402.945 107.126 402.462 105.612 398.504C103.096 391.926 103.506 389.068 107.507 385.3C113.67 379.498 123.337 379.72 131.827 385.86C139.804 391.629 144.18 401.075 144.32 412.826C144.424 421.593 142.312 428.77 137.321 436.603C129.127 449.464 116.231 457.46 101.816 460.379ZM391.633 473.157C388.784 472.909 386.154 472.575 383.951 472.158C339.526 463.745 304.812 427.171 296.478 380C294.557 369.126 294.596 348.782 296.559 337.578C299.731 319.473 306.414 303.053 317.239 286.768C321.856 279.822 328.56 272.388 344.458 256.587C368.078 233.112 375.21 223.967 384.948 204.674C412.38 150.326 407.39 86.3122 372.061 39.3376C366.605 32.0829 360.522 25.419 353.937 19.4021C446.728 57.8549 512 149.305 512 256C512 273.086 510.326 289.781 507.133 305.931C499.318 298.625 490.377 292.39 480.431 287.527C475.27 285.004 466.649 281.766 461.274 280.331C452.795 278.069 449.446 277.717 436 277.672C417.713 277.61 409.131 279.437 394.5 286.504C370.688 298.007 354.983 316.916 348.338 342.087C346.08 350.64 346.065 367.336 348.308 375.888C352.583 392.186 363.57 407.68 376.119 415.104C386.206 421.073 394.27 423.116 405.805 422.624C414.164 422.268 416.412 421.772 422.123 419.026C429.901 415.284 436.14 409.412 439.796 402.39C443.156 395.933 443.529 385.444 440.607 379.571C438.102 374.535 432.651 370.896 427.614 370.896C424.33 370.896 423.101 371.536 420.048 374.837C415.475 379.783 412.279 381.071 407.709 379.811C400.324 377.776 395.994 370.7 396.01 360.695C396.032 346.275 407.205 333.918 424.336 329.364C446.638 323.436 473.462 337.473 484.872 361.043C485.722 362.798 486.483 364.487 487.163 366.137C466.107 410.252 432.795 447.393 391.633 473.157Z" fill="#3A87ED"/>
<path d="M30.2959 351L66.9462 177.593H117.474C128.544 177.593 138.191 178.898 146.414 181.507C154.638 184.038 161.003 188.149 165.511 193.843C170.097 199.457 172.39 206.89 172.39 216.141C172.39 223.969 170.888 230.928 167.883 237.016C164.957 243.026 160.687 248.047 155.073 252.08C149.459 256.033 142.619 258.88 134.554 260.62V261.569C142.461 263.624 148.747 267.459 153.412 273.074C158.157 278.609 160.529 285.725 160.529 294.423C160.529 307.549 157.524 318.303 151.515 326.685C145.505 334.988 137.321 341.116 126.963 345.07C116.683 349.023 105.099 351 92.21 351H30.2959ZM72.8767 320.636H94.2263C100.157 320.636 105.336 319.648 109.764 317.671C114.192 315.694 117.632 312.768 120.083 308.894C122.614 305.019 123.879 300.275 123.879 294.661C123.879 288.572 122.06 283.867 118.423 280.546C114.864 277.146 109.448 275.446 102.173 275.446H82.6026L72.8767 320.636ZM88.6517 246.268H106.324C112.097 246.268 117.118 245.517 121.388 244.014C125.737 242.433 129.097 240.021 131.47 236.779C133.842 233.458 135.028 229.188 135.028 223.969C135.028 218.592 133.367 214.56 130.046 211.871C126.725 209.104 121.665 207.72 114.864 207.72H96.8357L88.6517 246.268ZM190.646 351L227.297 177.593H263.591L233.227 320.636H293.955L287.55 351H190.646ZM391.68 353.372C379.74 353.372 369.658 351.356 361.434 347.323C353.29 343.29 347.122 337.637 342.931 330.362C338.819 323.008 336.763 314.429 336.763 304.624C336.763 302.093 336.882 299.247 337.119 296.084C337.436 292.842 337.91 289.837 338.543 287.07L361.79 177.593H397.966L374.956 286.595C374.402 289.363 373.928 292.012 373.532 294.542C373.137 297.072 372.939 299.365 372.939 301.421C372.939 308.222 374.798 313.44 378.514 317.078C382.23 320.715 387.845 322.534 395.356 322.534C402.394 322.534 408.206 321.19 412.792 318.501C417.457 315.813 421.213 311.78 424.06 306.403C426.907 301.026 429.16 294.344 430.821 286.358L453.831 177.593H490.125L466.285 289.798C463.675 302.054 459.406 313.005 453.475 322.652C447.624 332.22 439.677 339.732 429.635 345.188C419.592 350.644 406.941 353.372 391.68 353.372Z" fill="white"/>
</svg>
