<svg width="512" height="512" viewBox="0 0 512 512" fill="none" xmlns="http://www.w3.org/2000/svg">
<path fill-rule="evenodd" clip-rule="evenodd" d="M176.204 12.6812C73.8925 46.2134 0 142.477 0 256C0 265.07 0.471703 274.03 1.39191 282.857C21.2215 260.664 47.6093 244.027 77.9999 235.679C94.1799 231.233 99.5419 230.629 122.5 230.661C147.586 230.695 154.483 231.783 178.854 239.553C200.421 246.429 207.024 247.537 226.5 247.551C250.034 247.567 265.166 244.155 284.446 234.481C346.552 203.322 369.258 129.526 333.561 74.8533C311.344 40.8261 270.819 25.8521 233.873 38.0188C202.756 48.2647 182.558 79.4387 188.273 108.398C191.441 124.45 199.873 136.146 212.887 142.542C218.736 145.417 220.395 145.772 227.979 145.772C235.574 145.772 237.09 145.446 241.927 142.777C248.987 138.881 253 132.86 253 126.165C253 119.718 250.157 116.458 243.477 115.243C233.295 113.392 229.959 103.634 236.298 94.2439C239.264 89.8493 244.114 86.6856 250.937 84.6949C265.612 80.414 284.938 90.3944 293.054 106.445C304.223 128.535 299.307 155.632 280.745 174.282C265.247 189.854 245.151 197.213 221.72 195.897C209.46 195.209 202.45 193.436 191.236 188.19C157.255 172.293 136 137.723 136 98.3511C136 64.795 151.415 34.127 176.204 12.6812ZM101.816 460.379C65.6458 433.049 36.9585 396.339 19.3729 353.867C20.8887 349.007 22.8223 344.204 25.1819 339.508C31.1169 327.697 34.2859 323.474 45.4489 312.494C57.0219 301.111 67.0379 294.614 81.2579 289.267C97.1089 283.308 106.993 281.767 125.5 282.371C145.911 283.036 157.98 285.996 175.039 294.521C195.312 304.651 212.183 319.629 224.521 338.45C235.16 354.679 240.132 367.214 245.508 391.361C253.044 425.209 265.309 450.165 285.263 472.251C296.599 484.799 308.931 495.126 322.392 503.307C301.219 508.977 278.962 512 256 512C220.143 512 186.009 504.628 155.029 491.318C169.553 480.417 181.15 466.156 187.571 450.435C193.61 435.647 194.504 430.894 194.457 413.824C194.41 396.591 193.248 390.62 187.535 378.262C176.671 354.761 157.081 338.929 133.225 334.373C123.726 332.559 118.723 332.591 109.208 334.53C91.4489 338.148 77.3969 348.611 70.2629 363.527C66.6409 371.1 66.5009 371.79 66.5299 381.878C66.5629 393.379 67.9609 397.708 74.0049 405.029C82.9679 415.884 100.256 416.665 105.362 406.445C107.111 402.945 107.126 402.462 105.612 398.504C103.096 391.926 103.506 389.068 107.507 385.3C113.67 379.498 123.337 379.72 131.827 385.86C139.804 391.629 144.18 401.075 144.32 412.826C144.424 421.593 142.312 428.77 137.321 436.603C129.127 449.464 116.231 457.46 101.816 460.379ZM391.633 473.157C388.784 472.909 386.154 472.575 383.951 472.158C339.526 463.745 304.812 427.171 296.478 380C294.557 369.126 294.596 348.782 296.559 337.578C299.731 319.473 306.414 303.053 317.239 286.768C321.856 279.822 328.56 272.388 344.458 256.587C368.078 233.112 375.21 223.967 384.948 204.674C412.38 150.326 407.39 86.3122 372.061 39.3376C366.605 32.0829 360.522 25.419 353.937 19.4021C446.728 57.8549 512 149.305 512 256C512 273.086 510.326 289.781 507.133 305.931C499.318 298.625 490.377 292.39 480.431 287.527C475.27 285.004 466.649 281.766 461.274 280.331C452.795 278.069 449.446 277.717 436 277.672C417.713 277.61 409.131 279.437 394.5 286.504C370.688 298.007 354.983 316.916 348.338 342.087C346.08 350.64 346.065 367.336 348.308 375.888C352.583 392.186 363.57 407.68 376.119 415.104C386.206 421.073 394.27 423.116 405.805 422.624C414.164 422.268 416.412 421.772 422.123 419.026C429.901 415.284 436.14 409.412 439.796 402.389C443.156 395.933 443.529 385.444 440.607 379.571C438.102 374.535 432.651 370.896 427.614 370.896C424.33 370.896 423.101 371.536 420.048 374.837C415.475 379.783 412.279 381.071 407.709 379.811C400.324 377.776 395.994 370.7 396.01 360.695C396.032 346.275 407.205 333.918 424.336 329.364C446.638 323.436 473.462 337.473 484.872 361.043C485.722 362.798 486.483 364.487 487.163 366.137C466.107 410.252 432.795 447.393 391.633 473.157Z" fill="black"/>
<path d="M28.4817 350L65.132 176.593H107.713C125.109 176.593 138.828 180.349 148.87 187.861C158.992 195.294 164.052 207.392 164.052 224.155C164.052 233.328 162.392 241.354 159.071 248.233C155.75 255.113 151.203 260.885 145.431 265.55C139.737 270.215 133.214 273.813 125.86 276.344L156.817 350H117.439L92.8866 283.46H78.7721L64.6576 350H28.4817ZM85.0584 253.571H94.3099C99.4497 253.571 104.036 253.017 108.069 251.91C112.18 250.724 115.66 249.024 118.506 246.81C121.353 244.517 123.488 241.67 124.911 238.27C126.414 234.791 127.165 230.758 127.165 226.172C127.165 219.688 125.267 214.825 121.471 211.583C117.676 208.341 111.785 206.72 103.799 206.72H95.0216L85.0584 253.571ZM241.86 352.372C229.92 352.372 219.838 350.356 211.615 346.323C203.47 342.29 197.302 336.637 193.111 329.362C189 322.008 186.944 313.429 186.944 303.624C186.944 301.093 187.062 298.247 187.3 295.084C187.616 291.842 188.09 288.837 188.723 286.07L211.97 176.593H248.146L225.136 285.595C224.583 288.363 224.108 291.012 223.713 293.542C223.317 296.072 223.12 298.365 223.12 300.421C223.12 307.222 224.978 312.44 228.694 316.078C232.411 319.715 238.025 321.534 245.537 321.534C252.574 321.534 258.386 320.19 262.972 317.501C267.638 314.813 271.394 310.78 274.24 305.403C277.087 300.026 279.34 293.344 281.001 285.358L304.011 176.593H340.306L316.465 288.798C313.856 301.054 309.586 312.005 303.655 321.652C297.804 331.22 289.857 338.732 279.815 344.188C269.773 349.644 257.121 352.372 241.86 352.372ZM344.457 350L381.107 176.593H431.635C442.705 176.593 452.352 177.898 460.576 180.507C468.799 183.038 475.165 187.149 479.672 192.843C484.258 198.457 486.551 205.89 486.551 215.141C486.551 222.969 485.049 229.928 482.044 236.016C479.118 242.026 474.848 247.047 469.234 251.08C463.62 255.033 456.78 257.88 448.715 259.62V260.569C456.622 262.624 462.908 266.459 467.574 272.074C472.318 277.609 474.69 284.725 474.69 293.423C474.69 306.549 471.685 317.303 465.676 325.685C459.666 333.988 451.482 340.116 441.124 344.07C430.844 348.023 419.26 350 406.371 350H344.457ZM387.038 319.636H408.387C414.318 319.636 419.497 318.648 423.925 316.671C428.353 314.694 431.793 311.768 434.244 307.894C436.775 304.019 438.04 299.275 438.04 293.661C438.04 287.572 436.221 282.867 432.584 279.546C429.025 276.146 423.609 274.446 416.334 274.446H396.764L387.038 319.636ZM402.813 245.268H420.486C426.258 245.268 431.279 244.517 435.549 243.014C439.898 241.433 443.259 239.021 445.631 235.779C448.003 232.458 449.189 228.188 449.189 222.969C449.189 217.592 447.529 213.56 444.207 210.871C440.886 208.104 435.826 206.72 429.025 206.72H410.997L402.813 245.268Z" fill="white"/>
</svg>